<?xml version="1.0" encoding="utf-8"?>
<!-- Generator: Adobe Illustrator 25.0.1, SVG Export Plug-In . SVG Version: 6.00 Build 0)  -->
<svg version="1.1" id="Layer_1" xmlns="http://www.w3.org/2000/svg" xmlns:xlink="http://www.w3.org/1999/xlink" x="0px" y="0px"
	 viewBox="0 0 10 10" style="enable-background:new 0 0 10 10;" xml:space="preserve">
<style type="text/css">
	.st0{fill:#FFFFFF;}
</style>
<path class="st0" d="M3.6,6.9c0,0.7,0,1.4,0,2.1c0,0.1,0,0.2-0.2,0.2c-0.6,0-1.1,0-1.7,0c-0.1,0-0.1,0-0.1-0.1c0-2.1,0-4.3,0-6.4
	c0-0.1,0-0.1,0.1-0.1c0.6,0,1.1,0,1.7,0c0.1,0,0.1,0,0.1,0.1c0,0.2,0,0.3,0,0.5c0.1-0.1,0.2-0.2,0.3-0.3c0.5-0.6,1.7-0.5,2.2,0.2
	c0.3,0.4,0.4,0.9,0.4,1.3c0,0.5,0,0.9,0,1.4c0,0.6-0.2,1.1-0.6,1.5C5.4,7.8,4.1,7.8,3.6,6.9z M3.5,5c0,0.3,0,0.6,0.1,0.9
	c0,0.2,0.2,0.3,0.3,0.3C4.2,6.2,4.5,6,4.5,5.7c0.1-0.4,0-0.8,0-1.2c0-0.1,0-0.2,0-0.3C4.4,3.9,4.3,3.8,4,3.8c-0.2,0-0.4,0.1-0.4,0.4
	C3.5,4.4,3.5,4.7,3.5,5z"/>
<g>
	<path class="st0" d="M6.9,2.8C6.6,2.5,6.4,2.1,6.2,1.8c0,0,0,0-0.1,0c-0.1,0-0.2,0-0.2-0.2c0-0.1,0-0.2,0.1-0.2
		C6.1,1.2,6.3,1.1,6.5,1c0,0,0.1-0.1,0.1-0.1c0.2-0.1,0.3,0,0.3,0.1c0,0,0,0.1,0,0.1c0,0,0,0.1,0,0.1C7.3,2,7.8,2.7,8.3,3.4
		c0.1,0.1,0.1,0.3,0.1,0.5C8.3,4,8.2,4.1,8,4.1c-0.2,0-0.3,0-0.4-0.2C7.3,3.5,7.1,3.2,6.9,2.8L6.9,2.8z M7,2.7
		C7.2,3,7.3,3.2,7.5,3.5c0.1,0.1,0.1,0.2,0.2,0.3C7.8,3.9,8,4,8.1,3.9c0.1-0.1,0.1-0.2,0.1-0.4c0,0,0-0.1-0.1-0.1
		C7.7,2.7,7.2,2,6.7,1.3c0-0.1-0.1-0.2,0-0.2c0,0,0,0,0,0s0,0,0,0c-0.1,0-0.1,0.1-0.2,0.1C6.4,1.3,6.2,1.4,6.1,1.5c0,0,0,0,0,0
		s0,0,0,0c0.1,0,0.2,0,0.2,0.1C6.5,2,6.8,2.3,7,2.7z"/>
	<path class="st0" d="M7.7,3.4c0,0,0.1,0.1,0.1,0.1c0,0,0.1,0.1,0.1,0.1c0,0,0.1,0.1,0.1,0.1c0.1,0,0.1-0.1,0.1-0.2
		C8,3.4,7.9,3.3,7.8,3.1c0,0-0.1-0.1-0.1-0.1S7.6,3.1,7.5,3.1c-0.1,0-0.1,0.1,0,0.1C7.5,3.3,7.6,3.4,7.7,3.4z M7.3,2.5
		c0-0.1-0.1-0.1-0.2,0c-0.1,0-0.1,0.1,0,0.2s0.1,0.1,0.2,0C7.3,2.7,7.4,2.6,7.3,2.5z M7.4,2.9C7.5,2.9,7.5,2.9,7.4,2.9
		c0.1,0,0.1,0,0.1-0.1C7.5,2.8,7.5,2.8,7.4,2.9C7.4,2.8,7.4,2.8,7.4,2.9z"/>
	<path class="st0" d="M7.7,3.4C7.6,3.4,7.5,3.3,7.5,3.2c0,0,0-0.1,0-0.1C7.6,3.1,7.6,3,7.7,3s0.1,0.1,0.1,0.2C7.9,3.3,8,3.4,8.1,3.6
		c0.1,0.1,0,0.2-0.1,0.2c-0.1,0-0.1,0-0.1-0.1c0,0-0.1-0.1-0.1-0.1C7.7,3.5,7.7,3.5,7.7,3.4z"/>
	<path class="st0" d="M7.3,2.5c0,0.1,0,0.2,0,0.2s-0.1,0-0.2,0s0-0.1,0-0.2C7.2,2.5,7.3,2.5,7.3,2.5z"/>
	<path class="st0" d="M7.4,2.9C7.4,2.9,7.4,2.8,7.4,2.9c0.1-0.1,0.1-0.1,0.1-0.1C7.6,2.8,7.6,2.9,7.4,2.9C7.5,2.9,7.5,2.9,7.4,2.9z"
		/>
</g>
</svg>
