<?xml version="1.0" encoding="utf-8"?>
<!-- Generator: Adobe Illustrator 25.0.1, SVG Export Plug-In . SVG Version: 6.00 Build 0)  -->
<svg version="1.1" id="Layer_1" xmlns="http://www.w3.org/2000/svg" xmlns:xlink="http://www.w3.org/1999/xlink" x="0px" y="0px"
	 viewBox="0 0 10 10" style="enable-background:new 0 0 10 10;" xml:space="preserve">
<style type="text/css">
	.st0{fill:#060606;}
</style>
<path class="st0" d="M3.56,6.91c0,0.72,0,1.4,0,2.08c0,0.13-0.03,0.17-0.16,0.16c-0.56-0.01-1.13-0.01-1.69,0
	c-0.1,0-0.12-0.03-0.12-0.13c0-2.14,0-4.29,0-6.43c0-0.1,0.02-0.13,0.13-0.13c0.57,0.01,1.14,0.01,1.72,0
	c0.12,0,0.13,0.04,0.13,0.14c-0.01,0.15,0,0.3,0,0.49c0.1-0.14,0.19-0.24,0.28-0.35c0.55-0.62,1.73-0.51,2.24,0.19
	c0.3,0.4,0.42,0.86,0.44,1.35c0.02,0.47,0.02,0.94,0,1.41C6.5,6.24,6.35,6.76,5.95,7.18C5.36,7.77,4.08,7.84,3.56,6.91z M3.52,4.97
	c0.01,0.29-0.03,0.58,0.06,0.86c0.05,0.17,0.15,0.3,0.34,0.33c0.3,0.05,0.54-0.12,0.58-0.44c0.06-0.41,0.02-0.83,0.03-1.25
	c0-0.11-0.02-0.22-0.04-0.32C4.43,3.89,4.29,3.79,4.02,3.79c-0.24,0-0.38,0.12-0.44,0.36C3.5,4.43,3.54,4.7,3.52,4.97z"/>
<g>
	<path d="M6.87,2.83C6.63,2.47,6.39,2.11,6.15,1.75C6.13,1.72,6.12,1.7,6.07,1.71C5.96,1.73,5.89,1.68,5.84,1.56
		c-0.03-0.08,0-0.16,0.08-0.22C6.11,1.22,6.3,1.09,6.49,0.96c0.03-0.02,0.07-0.05,0.1-0.07c0.17-0.12,0.29,0.02,0.32,0.15
		c0.01,0.04,0,0.08-0.03,0.11c-0.04,0.04-0.02,0.07,0,0.11c0.47,0.7,0.94,1.41,1.41,2.11c0.09,0.14,0.13,0.29,0.07,0.45
		C8.32,3.98,8.19,4.08,8.02,4.1C7.84,4.12,7.69,4.05,7.59,3.9C7.35,3.55,7.11,3.19,6.87,2.83C6.87,2.83,6.87,2.83,6.87,2.83z M7,2.7
		c0.17,0.26,0.35,0.52,0.52,0.78C7.59,3.59,7.66,3.7,7.74,3.8c0.09,0.13,0.25,0.16,0.37,0.08c0.12-0.09,0.15-0.24,0.07-0.37
		C8.16,3.47,8.14,3.44,8.11,3.4C7.65,2.71,7.19,2.02,6.72,1.32C6.67,1.24,6.65,1.17,6.71,1.09c0.01-0.01,0.03-0.02,0.01-0.04
		c-0.02-0.02-0.03,0-0.04,0.01C6.62,1.09,6.57,1.13,6.52,1.16c-0.16,0.1-0.31,0.21-0.47,0.31C6.04,1.48,6.02,1.49,6.02,1.51
		c0,0.02,0.02,0.02,0.03,0.01c0.1-0.03,0.17,0.01,0.22,0.1C6.52,1.98,6.76,2.34,7,2.7z"/>
	<path d="M7.66,3.44c0.03,0.05,0.06,0.09,0.09,0.14c0.03,0.05,0.06,0.09,0.09,0.14C7.88,3.77,7.93,3.8,7.99,3.79
		C8.1,3.76,8.13,3.66,8.06,3.55c-0.09-0.13-0.18-0.27-0.27-0.4C7.75,3.1,7.73,3.01,7.67,3C7.61,2.99,7.56,3.06,7.5,3.1
		C7.45,3.12,7.45,3.15,7.48,3.19C7.54,3.27,7.6,3.36,7.66,3.44z M7.33,2.53C7.29,2.47,7.2,2.46,7.14,2.5
		C7.08,2.55,7.07,2.63,7.11,2.69c0.04,0.06,0.12,0.08,0.18,0.04C7.35,2.68,7.37,2.59,7.33,2.53z M7.45,2.88
		c0.03,0.04,0.07,0.04,0.1,0.02c0.03-0.02,0.04-0.06,0.02-0.1c-0.03-0.04-0.06-0.05-0.1-0.02C7.43,2.81,7.43,2.85,7.45,2.88z"/>
	<path d="M7.66,3.44C7.6,3.36,7.54,3.27,7.48,3.19C7.45,3.15,7.45,3.12,7.5,3.1C7.56,3.06,7.61,2.99,7.67,3
		c0.06,0.01,0.08,0.1,0.12,0.16c0.09,0.13,0.18,0.27,0.27,0.4C8.13,3.66,8.1,3.76,7.99,3.79C7.93,3.8,7.88,3.77,7.84,3.72
		C7.81,3.67,7.78,3.63,7.75,3.58C7.72,3.53,7.69,3.49,7.66,3.44z"/>
	<path d="M7.33,2.53c0.04,0.06,0.02,0.15-0.04,0.19C7.23,2.76,7.15,2.75,7.11,2.69C7.07,2.63,7.08,2.55,7.14,2.5
		C7.2,2.46,7.29,2.47,7.33,2.53z"/>
	<path d="M7.45,2.88c-0.02-0.03-0.02-0.07,0.02-0.1c0.04-0.03,0.07-0.02,0.1,0.02c0.03,0.04,0.01,0.07-0.02,0.1
		C7.52,2.92,7.48,2.92,7.45,2.88z"/>
</g>
</svg>
