<?xml version="1.0" encoding="utf-8"?>
<!-- Generator: Adobe Illustrator 25.0.1, SVG Export Plug-In . SVG Version: 6.00 Build 0)  -->
<svg version="1.1" id="Layer_1" xmlns="http://www.w3.org/2000/svg" xmlns:xlink="http://www.w3.org/1999/xlink" x="0px" y="0px"
	 viewBox="0 0 200 200" style="enable-background:new 0 0 200 200;" xml:space="preserve">
<style type="text/css">
	.st0{fill:#FFFFFF;}
	.st1{fill:#0C0508;}
	.st2{fill:#010101;}
</style>
<path class="st0" d="M151.3,177.3H49.7c-6.3,0-11.3-5-11.3-11.3V96.5h124.2V166C162.6,172.3,157.6,177.3,151.3,177.3z"/>
<g>
	<circle class="st0" cx="100.5" cy="67.3" r="20.7"/>
	<polygon class="st0" points="100.5,96.5 115.1,81.9 84.7,80.8 	"/>
</g>
<g>
	<circle class="st1" cx="100.5" cy="125.8" r="20.7"/>
	<polygon points="100.5,96.5 85.9,111.2 116.1,112.2 	"/>
</g>
<g>
	<circle class="st0" cx="141.9" cy="38.2" r="20.7"/>
	<polygon class="st0" points="141.9,67.5 156.6,52.8 126.3,51.7 	"/>
</g>
<g>
	<circle class="st0" cx="141.9" cy="96.8" r="20.7"/>
	<polygon class="st0" points="141.9,67.5 127.3,82.1 157.7,83.1 	"/>
</g>
<g>
	<circle class="st0" cx="59.2" cy="38.2" r="20.7"/>
	<polygon class="st0" points="59.2,67.5 73.8,52.9 43.4,51.7 	"/>
</g>
<polygon class="st0" points="59.2,67 44.6,81.7 74.8,82.7 "/>
<path class="st2" d="M79.7,96.5"/>
<path class="st0" d="M73.7,82.2c-8.1-8.1-21.2-8.1-29.3,0c-4,4-6,9.3-6,14.5h41.3H38.4c0,5.4,2,10.8,6,14.8c8.1,8.1,21.2,8.1,29.3,0
	C81.7,103.3,81.7,90.2,73.7,82.2z"/>
<g>
	<path d="M162.6,96.5c0,5.3-2,10.6-6,14.6c-8.1,8.1-21.2,8.1-29.3,0c-4-4-6-9.4-6-14.6"/>
</g>
<circle class="st0" cx="59.1" cy="96.1" r="20.7"/>
<path d="M79.7,96.5c0,5.3-2,10.6-6,14.6c-8.1,8.1-21.2,8.1-29.3,0c-4-4-6-9.4-6-14.6"/>
</svg>
