<?xml version="1.0" encoding="utf-8"?>
<!-- Generator: Adobe Illustrator 25.0.1, SVG Export Plug-In . SVG Version: 6.00 Build 0)  -->
<svg version="1.1" id="Layer_1" xmlns="http://www.w3.org/2000/svg" xmlns:xlink="http://www.w3.org/1999/xlink" x="0px" y="0px"
	 viewBox="0 0 100 100" style="enable-background:new 0 0 100 100;" xml:space="preserve">
<style type="text/css">
	.st0{display:none;fill:#FFFFFF;stroke:#000000;stroke-miterlimit:10;}
	.st1{display:none;fill:#FFFFFF;stroke:#000000;stroke-width:6;stroke-miterlimit:10;}
	.st2{display:none;stroke:#000000;stroke-width:2;stroke-miterlimit:10;}
	.st3{display:none;}
	.st4{display:inline;fill:#FFFFFF;stroke:#000000;stroke-width:6;stroke-miterlimit:10;}
	.st5{display:inline;fill:none;stroke:#010101;stroke-width:13.995;stroke-miterlimit:10;}
	.st6{display:inline;fill:#010101;stroke:#010101;stroke-width:13.995;stroke-miterlimit:10;}
	.st7{fill:none;stroke:#FFFFFF;stroke-width:6;stroke-miterlimit:10;}
	.st8{fill:#FFFFFF;stroke:#FFFFFF;stroke-width:6;stroke-miterlimit:10;}
</style>
<rect x="19.2" y="40.9" class="st0" width="61.6" height="17.7"/>
<rect x="19.2" y="58.6" class="st0" width="61.6" height="17.7"/>
<polygon class="st1" points="59.6,40.7 40.4,40.7 30.6,57.8 69.4,57.8 "/>
<path class="st2" d="M11.4,11"/>
<g class="st3">
	<polygon class="st4" points="50,24.2 20.8,74.8 50,74.8 85,74.8 	"/>
	<line class="st4" x1="50" y1="74.8" x2="50" y2="24.2"/>
</g>
<g class="st3">
	<path class="st5" d="M58.4,37.1c-0.2-0.2-0.7-0.5-1.1-0.5H42.8c-0.4,0-0.9,0.2-1.1,0.5l-7,8.9c-0.2,0.2,0,0.5,0.4,0.5H65
		c0.4,0,0.6-0.2,0.4-0.5L58.4,37.1z"/>
</g>
<g class="st3">
	<path class="st5" d="M66.1,47c-0.2-0.2-0.7-0.5-1.1-0.5H35.1c-0.4,0-0.9,0.2-1.1,0.5l-7,8.9c-0.2,0.2,0,0.5,0.4,0.5h45.4
		c0.4,0,0.6-0.2,0.4-0.5L66.1,47z"/>
</g>
<g class="st3">
	<path class="st6" d="M27.3,56.4c-0.4,0-0.9,0.2-1.1,0.5l-7,8.9c-0.2,0.2,0,0.5,0.4,0.5h60.8c0.4,0,0.6-0.2,0.4-0.5l-7-8.9
		c-0.2-0.2-0.7-0.5-1.1-0.5L27.3,56.4L27.3,56.4z"/>
</g>
<g class="st3">
	<path class="st5" d="M81.6,66.7c-0.2-0.2-0.7-0.5-1.1-0.5H19.6c-0.4,0-0.9,0.2-1.1,0.5l-6.7,8.5c-0.2,0.2-0.4,0.6-0.4,0.7
		s0.3,0.2,0.7,0.2h75.8c0.4,0,0.7-0.1,0.7-0.2s-0.2-0.4-0.4-0.7L81.6,66.7z"/>
	<path class="st5" d="M19.6,66.2c-0.4,0-0.9,0.2-1.1,0.5l-6.7,8.5c-0.2,0.2-0.4,0.6-0.4,0.7s0.3,0.2,0.7,0.2h75.8
		c0.4,0,0.7-0.1,0.7-0.2s-0.2-0.4-0.4-0.7l-6.7-8.5c-0.2-0.2-0.7-0.5-1.1-0.5"/>
</g>
<g class="st3">
	<path class="st5" d="M57.2,36.7c0.4,0,0.6-0.2,0.4-0.5l-7-8.9c-0.2-0.3-0.5-0.5-0.6-0.5c-0.1,0-0.4,0.2-0.6,0.5l-7,8.9
		c-0.2,0.2,0,0.5,0.4,0.5H57.2z"/>
</g>
<path class="st7" d="M50.2,22.9l-39,49.5c-0.6,0.7-0.1,1.7,0.8,1.7H90c0.9,0,1.4-1,0.8-1.7L51.9,22.9C51.5,22.3,50.7,22.3,50.2,22.9
	z"/>
<line class="st7" x1="79.9" y1="58.4" x2="22.3" y2="58.4"/>
<line class="st7" x1="35.8" y1="41.3" x2="66.4" y2="41.3"/>
<polygon class="st8" points="35.3,46.2 30.1,58 72.5,58.3 66.4,45.3 "/>
</svg>
